<svg width="138" height="75" viewBox="0 0 138 75" fill="none" xmlns="http://www.w3.org/2000/svg">
<path d="M48.6095 10L48.1393 10.0195L47.6751 10.0781L48.6095 10ZM49.5439 10.0781L49.0797 10.0195L48.6095 10L49.5439 10.0781ZM48.6095 10L48.1393 10.0195L47.6751 10.0781L48.6095 10ZM49.5439 10.0781L49.0797 10.0195L48.6095 10L49.5439 10.0781ZM49.5439 10.0781L48.6095 10L47.6751 10.0781L49.5439 10.0781ZM49.5439 10.0781L48.6095 10L47.6751 10.0781L49.5439 10.0781ZM47.6751 10.0781L47.223 10.1757L46.7891 10.3124L47.6751 10.0781ZM50.4299 10.3124L49.996 10.1757L49.5439 10.0781L50.4299 10.3124ZM47.6751 10.0781L47.223 10.1757L46.7891 10.3124L47.6751 10.0781ZM50.4299 10.3124L49.996 10.1757L49.5439 10.0781L50.4299 10.3124ZM49.5439 10.0781L47.6751 10.0781L46 10.7037L49.5439 10.0781ZM49.5439 10.0781L47.6751 10.0781L46 10.7037L49.5439 10.0781ZM47.6751 10.0781L46.7891 10.3124L46 10.7037L47.6751 10.0781ZM51.219 10.7037L50.4299 10.3124L49.5439 10.0781L51.219 10.7037ZM47.6751 10.0781L46.7891 10.3124L46 10.7037L47.6751 10.0781ZM51.219 10.7037L50.4299 10.3124L49.5439 10.0781L51.219 10.7037ZM46.7891 10.3124L46.3794 10.4883L46 10.7037L46.7891 10.3124ZM51.219 10.7037L50.8396 10.4883L50.4299 10.3124L51.219 10.7037ZM46.7891 10.3124L46.3794 10.4883L46 10.7037L46.7891 10.3124ZM51.219 10.7037L50.8396 10.4883L50.4299 10.3124L51.219 10.7037ZM92.219 38.7429L51.219 10.7037L49.5439 10.0781L92.219 38.7429ZM92.219 38.7429L49.5439 10.0781L46 10.7037L92.219 38.7429ZM92.219 38.7429L51.219 10.7037L49.5439 10.0781L92.219 38.7429ZM92.219 38.7429L49.5439 10.0781L46 10.7037L92.219 38.7429ZM91.1902 36.6792L90.7999 36.3925L51.219 10.7037L91.1902 36.6792ZM46 10.7037L6.41907 36.3925L6.02878 36.6792L46 10.7037ZM91.1902 36.6792L90.7999 36.3925L51.219 10.7037L91.1902 36.6792ZM46 10.7037L6.41907 36.3925L6.02878 36.6792L46 10.7037ZM91.786 37.3202L91.1902 36.6792L51.219 10.7037L91.786 37.3202ZM46 10.7037L6.02878 36.6792L5.43292 37.3202L46 10.7037ZM91.786 37.3202L91.1902 36.6792L51.219 10.7037L91.786 37.3202ZM46 10.7037L6.02878 36.6792L5.43292 37.3202L46 10.7037ZM92.219 38.7429L91.786 37.3202L51.219 10.7037L92.219 38.7429ZM46 10.7037L5.43292 37.3202L5 38.7429L46 10.7037ZM92.219 38.7429L91.786 37.3202L51.219 10.7037L92.219 38.7429ZM46 10.7037L5.43292 37.3202L5 38.7429L46 10.7037Z" fill="white"/>
<path d="M5 38.7429L5.3426 41.5491L5.39679 41.9065L5 38.7429ZM5 38.7429L5.3426 41.5491L5.39679 41.9065L5 38.7429Z" fill="#1E1E1E"/>
<path d="M91.786 37.3203L91.5191 36.99L91.1902 36.6792L91.786 37.3203ZM6.02878 36.6792L5.69984 36.99L5.43292 37.3203L6.02878 36.6792ZM91.786 37.3203L91.5191 36.99L91.1902 36.6792L91.786 37.3203ZM6.02878 36.6792L5.69984 36.99L5.43292 37.3203L6.02878 36.6792Z" fill="white"/>
<path d="M92.1647 39.1004L91.8222 41.9065L91.8763 41.5491L92.1647 39.1004ZM92.1647 39.1004L91.8222 41.9065L91.8763 41.5491L92.1647 39.1004ZM5.05426 39.1004L5.39678 41.9065L5.51699 42.2551L5.05426 39.1004ZM5.05426 39.1004L5.39678 41.9065L5.51699 42.2551L5.05426 39.1004ZM92.0438 39.4489L91.7019 42.2551L91.8222 41.9065L92.0438 39.4489ZM92.0438 39.4489L91.7019 42.2551L91.8222 41.9065L92.0438 39.4489Z" fill="#1E1E1E"/>
<path d="M92.131 38.0206L91.9902 37.6653L91.786 37.3202L92.131 38.0206ZM92.131 38.0206L91.9902 37.6653L91.786 37.3202L92.131 38.0206ZM5.43291 37.3202L5.22872 37.6653L5.088 38.0206L5.43291 37.3202ZM5.43291 37.3202L5.22872 37.6653L5.088 38.0206L5.43291 37.3202Z" fill="white"/>
<path d="M5.17511 39.4489L5.51701 42.255L5.70399 42.5898L5.17511 39.4489ZM5.17511 39.4489L5.51701 42.255L5.70399 42.5898L5.17511 39.4489ZM91.8557 39.7837L91.515 42.5898L91.702 42.255L91.8557 39.7837ZM91.8557 39.7837L91.515 42.5898L91.702 42.255L91.8557 39.7837ZM92.219 38.7429L92.1647 39.1003L91.8764 41.5491L92.219 38.7429ZM92.219 38.7429L92.1647 39.1003L91.8764 41.5491L92.219 38.7429ZM5.36326 39.7837L5.70399 42.5898L5.95847 42.906L5.36326 39.7837ZM5.36326 39.7837L5.70399 42.5898L5.95847 42.906L5.36326 39.7837Z" fill="#1E1E1E"/>
<path d="M92.219 38.7429L92.131 38.0207L91.786 37.3202L92.219 38.7429ZM5.43292 37.3202L5.08801 38.0207L5 38.7429L5.43292 37.3202ZM92.219 38.7429L92.131 38.0207L91.786 37.3202L92.219 38.7429ZM5.43292 37.3202L5.08801 38.0207L5 38.7429L5.43292 37.3202Z" fill="white"/>
<path d="M5.05426 39.1003L4.99998 38.7429L5.39678 41.9065L5.05426 39.1003ZM5.05426 39.1003L4.99998 38.7429L5.39678 41.9065L5.05426 39.1003ZM91.5995 40.1L91.2605 42.906L91.515 42.5899L91.5995 40.1ZM91.5995 40.1L91.2605 42.906L91.515 42.5899L91.5995 40.1ZM92.1647 39.1003L92.0438 39.4489L91.8222 41.9065L92.1647 39.1003ZM92.1647 39.1003L92.0438 39.4489L91.8222 41.9065L92.1647 39.1003ZM5.61945 40.1L5.95845 42.906L6.28114 43.1987L5.61945 40.1ZM5.61945 40.1L5.95845 42.906L6.28114 43.1987L5.61945 40.1Z" fill="#1E1E1E"/>
<path d="M92.219 38.7429L92.2075 38.3814L92.131 38.0207L92.219 38.7429ZM5.08801 38.0207L5.01151 38.3814L5 38.7429L5.08801 38.0207ZM92.219 38.7429L92.2075 38.3814L92.131 38.0207L92.219 38.7429ZM5.08801 38.0207L5.01151 38.3814L5 38.7429L5.08801 38.0207Z" fill="white"/>
<path d="M5.1751 39.4489L5.05428 39.1003L5.517 42.2551L5.1751 39.4489ZM5.1751 39.4489L5.05428 39.1003L5.517 42.2551L5.1751 39.4489ZM91.2745 40.3927L90.9378 43.1987L91.2605 42.906L91.2745 40.3927ZM91.2745 40.3927L90.9378 43.1987L91.2605 42.906L91.2745 40.3927ZM92.0439 39.4489L91.8557 39.7838L91.702 42.2551L92.0439 39.4489ZM92.0439 39.4489L91.8557 39.7838L91.702 42.2551L92.0439 39.4489ZM5.36325 39.7838L5.1751 39.4489L5.70398 42.5899L5.36325 39.7838ZM5.36325 39.7838L5.1751 39.4489L5.70398 42.5899L5.36325 39.7838ZM91.8557 39.7838L91.5995 40.1L91.515 42.5899L91.8557 39.7838ZM91.8557 39.7838L91.5995 40.1L91.515 42.5899L91.8557 39.7838ZM5.61945 40.1L5.36325 39.7838L5.95847 42.906L5.61945 40.1ZM5.61945 40.1L5.36325 39.7838L5.95847 42.906L5.61945 40.1Z" fill="#1E1E1E"/>
<path d="M92.0439 39.4489L92.1647 39.1003L92.219 38.7429L92.0439 39.4489ZM5 38.7429L5.05428 39.1003L5.17511 39.4489L5 38.7429ZM92.0439 39.4489L92.1647 39.1003L92.219 38.7429L92.0439 39.4489ZM5 38.7429L5.05428 39.1003L5.17511 39.4489L5 38.7429Z" fill="white"/>
<path d="M91.5995 40.1L91.2745 40.3927L91.2605 42.906L91.5995 40.1ZM91.5995 40.1L91.2745 40.3927L91.2605 42.906L91.5995 40.1ZM5.94444 40.3927L5.61947 40.1L6.28116 43.1987L5.94444 40.3927ZM5.94444 40.3927L5.61947 40.1L6.28116 43.1987L5.94444 40.3927Z" fill="#1E1E1E"/>
<path d="M91.5995 40.1L92.0439 39.4489L92.219 38.7429L91.5995 40.1ZM5 38.7429L5.17511 39.4489L5.61946 40.1L5 38.7429ZM91.5995 40.1L92.0439 39.4489L92.219 38.7429L91.5995 40.1ZM5 38.7429L5.17511 39.4489L5.61946 40.1L5 38.7429ZM91.5995 40.1L91.8557 39.7837L92.0439 39.4489L91.5995 40.1ZM5.17511 39.4489L5.36326 39.7837L5.61946 40.1L5.17511 39.4489ZM91.5995 40.1L91.8557 39.7837L92.0439 39.4489L91.5995 40.1ZM5.17511 39.4489L5.36326 39.7837L5.61946 40.1L5.17511 39.4489ZM46 10.7036L5 38.7429L46.45 71.6782L46 10.7036ZM46 10.7036L46.45 71.6782L92.219 38.7429L46 10.7036ZM46 10.7036L5 38.7429L46.45 71.6782L46 10.7036ZM46 10.7036L46.45 71.6782L92.219 38.7429L46 10.7036Z" fill="white"/>
<path d="M5.94443 40.3927L6.28115 43.1987L45.5484 73.9097L5.94443 40.3927ZM5.94443 40.3927L6.28115 43.1987L45.5484 73.9097L5.94443 40.3927ZM91.2745 40.3927L51.697 71.129L90.9378 43.1987L91.2745 40.3927ZM91.2745 40.3927L51.697 71.129L90.9378 43.1987L91.2745 40.3927Z" fill="#1E1E1E"/>
<path d="M50.7689 71.6782L91.5995 40.1L92.219 38.7429L50.7689 71.6782ZM5 38.7429L5.61946 40.1L46.45 71.6782L5 38.7429ZM50.7689 71.6782L91.5995 40.1L92.219 38.7429L50.7689 71.6782ZM5 38.7429L5.61946 40.1L46.45 71.6782L5 38.7429ZM51.697 71.129L91.2745 40.3926L91.5995 40.1L51.697 71.129ZM5.61946 40.1L5.94443 40.3926L45.522 71.129L5.61946 40.1ZM51.697 71.129L91.2745 40.3926L91.5995 40.1L51.697 71.129ZM5.61946 40.1L5.94443 40.3926L45.522 71.129L5.61946 40.1Z" fill="white"/>
<path d="M51.6969 71.129L51.6705 73.9097L90.9378 43.1987L51.6969 71.129ZM51.6969 71.129L51.6705 73.9097L90.9378 43.1987L51.6969 71.129ZM45.522 71.129L5.94441 40.3927L45.5484 73.9097L45.522 71.129ZM45.522 71.129L5.94441 40.3927L45.5484 73.9097L45.522 71.129Z" fill="#1E1E1E"/>
<path d="M46.45 71.6782H50.7689L92.219 38.7429L46.45 71.6782ZM46.45 71.6782H50.7689L92.219 38.7429L46.45 71.6782ZM50.7689 71.6782L51.697 71.129L91.5995 40.1L50.7689 71.6782ZM5.61946 40.1L45.522 71.129L46.45 71.6782L5.61946 40.1ZM50.7689 71.6782L51.697 71.129L91.5995 40.1L50.7689 71.6782ZM5.61946 40.1L45.522 71.129L46.45 71.6782L5.61946 40.1Z" fill="white"/>
<path d="M45.522 71.129L45.5484 73.9097L45.9897 74.2111L45.522 71.129ZM45.522 71.129L45.5484 73.9097L45.9897 74.2111L45.522 71.129ZM51.2519 71.4309L51.2292 74.2111L51.6705 73.9097L51.2519 71.4309ZM51.2519 71.4309L51.2292 74.2111L51.6705 73.9097L51.2519 71.4309ZM45.9671 71.4309L45.9897 74.2111L46.4685 74.458L45.9671 71.4309ZM45.9671 71.4309L45.9897 74.2111L46.4685 74.458L45.9671 71.4309ZM50.7689 71.6782L50.7504 74.458L51.2292 74.2111L50.7689 71.6782ZM50.7689 71.6782L50.7504 74.458L51.2292 74.2111L50.7689 71.6782ZM46.45 71.6782L46.4685 74.458L46.9774 74.6503L46.45 71.6782ZM46.45 71.6782L46.4685 74.458L46.9774 74.6503L46.45 71.6782ZM50.2557 71.8708L50.2416 74.6503L50.7504 74.458L50.2557 71.8708ZM50.2557 71.8708L50.2416 74.6503L50.7504 74.458L50.2557 71.8708ZM46.9633 71.8708L46.9774 74.6503L47.5089 74.7878L46.9633 71.8708ZM46.9633 71.8708L46.9774 74.6503L47.5089 74.7878L46.9633 71.8708ZM49.7196 72.0084L49.7101 74.7878L50.2416 74.6503L49.7196 72.0084ZM49.7196 72.0084L49.7101 74.7878L50.2416 74.6503L49.7196 72.0084ZM47.4994 72.0084L47.5089 74.7878L48.0554 74.8703L47.4994 72.0084ZM47.4994 72.0084L47.5089 74.7878L48.0554 74.8703L47.4994 72.0084ZM49.1684 72.0911L49.1636 74.8703L49.7101 74.7878L49.1684 72.0911ZM49.1684 72.0911L49.1636 74.8703L49.7101 74.7878L49.1684 72.0911ZM48.0506 72.0911L48.0554 74.8703L48.6095 74.8978L48.0506 72.0911ZM48.0506 72.0911L48.0554 74.8703L48.6095 74.8978L48.0506 72.0911ZM48.6095 72.1186V74.8978L49.1636 74.8703L48.6095 72.1186ZM48.6095 72.1186V74.8978L49.1636 74.8703L48.6095 72.1186ZM51.697 71.129L51.2519 71.4309L51.6705 73.9097L51.697 71.129ZM51.697 71.129L51.2519 71.4309L51.6705 73.9097L51.697 71.129ZM45.9671 71.4309L45.522 71.129L45.9897 74.2111L45.9671 71.4309ZM45.9671 71.4309L45.522 71.129L45.9897 74.2111L45.9671 71.4309ZM51.2519 71.4309L50.7689 71.6782L51.2292 74.2111L51.2519 71.4309ZM51.2519 71.4309L50.7689 71.6782L51.2292 74.2111L51.2519 71.4309ZM46.45 71.6782L45.9671 71.4309L46.4685 74.458L46.45 71.6782ZM46.45 71.6782L45.9671 71.4309L46.4685 74.458L46.45 71.6782ZM50.7689 71.6782L50.2557 71.8708L50.7504 74.458L50.7689 71.6782ZM50.7689 71.6782L50.2557 71.8708L50.7504 74.458L50.7689 71.6782ZM46.9633 71.8708L46.45 71.6782L46.9774 74.6503L46.9633 71.8708ZM46.9633 71.8708L46.45 71.6782L46.9774 74.6503L46.9633 71.8708ZM50.2557 71.8708L49.7196 72.0084L50.2416 74.6503L50.2557 71.8708ZM50.2557 71.8708L49.7196 72.0084L50.2416 74.6503L50.2557 71.8708ZM47.4994 72.0084L46.9633 71.8708L47.5089 74.7878L47.4994 72.0084ZM47.4994 72.0084L46.9633 71.8708L47.5089 74.7878L47.4994 72.0084ZM49.7196 72.0084L49.1684 72.0911L49.7101 74.7878L49.7196 72.0084ZM49.7196 72.0084L49.1684 72.0911L49.7101 74.7878L49.7196 72.0084ZM48.0506 72.0911L47.4994 72.0084L48.0554 74.8703L48.0506 72.0911ZM48.0506 72.0911L47.4994 72.0084L48.0554 74.8703L48.0506 72.0911ZM49.1684 72.0911L48.6095 72.1186L49.1636 74.8703L49.1684 72.0911ZM49.1684 72.0911L48.6095 72.1186L49.1636 74.8703L49.1684 72.0911ZM48.6095 72.1186L48.0506 72.0911L48.6095 74.8978V72.1186ZM48.6095 72.1186L48.0506 72.0911L48.6095 74.8978V72.1186Z" fill="#1E1E1E"/>
<path d="M50.7689 71.6782L51.2519 71.4309L51.697 71.129L50.7689 71.6782ZM45.522 71.129L45.9671 71.4309L46.45 71.6782L45.522 71.129ZM50.7689 71.6782L51.2519 71.4309L51.697 71.129L50.7689 71.6782ZM45.522 71.129L45.9671 71.4309L46.45 71.6782L45.522 71.129ZM46.45 71.6782L48.6095 72.1187L50.7689 71.6782H46.45ZM46.45 71.6782L48.6095 72.1187L50.7689 71.6782H46.45ZM49.7196 72.0084L50.2557 71.8708L50.7689 71.6782L49.7196 72.0084ZM46.45 71.6782L46.9633 71.8708L47.4994 72.0084L46.45 71.6782ZM49.7196 72.0084L50.2557 71.8708L50.7689 71.6782L49.7196 72.0084ZM46.45 71.6782L46.9633 71.8708L47.4994 72.0084L46.45 71.6782ZM48.6095 72.1187L49.7196 72.0084L50.7689 71.6782L48.6095 72.1187ZM46.45 71.6782L47.4994 72.0084L48.6095 72.1187L46.45 71.6782ZM48.6095 72.1187L49.7196 72.0084L50.7689 71.6782L48.6095 72.1187ZM46.45 71.6782L47.4994 72.0084L48.6095 72.1187L46.45 71.6782ZM47.4994 72.0084L48.0506 72.0911L48.6095 72.1187L47.4994 72.0084ZM47.4994 72.0084L48.0506 72.0911L48.6095 72.1187L47.4994 72.0084ZM48.6095 72.1187L49.1684 72.0911L49.7196 72.0084L48.6095 72.1187ZM48.6095 72.1187L49.1684 72.0911L49.7196 72.0084L48.6095 72.1187Z" fill="white"/>
<path d="M48.6095 10L48.1393 10.0195L47.6751 10.0781L48.6095 10ZM49.5439 10.0781L49.0797 10.0195L48.6095 10L49.5439 10.0781ZM48.6095 10L48.1393 10.0195L47.6751 10.0781L48.6095 10ZM49.5439 10.0781L49.0797 10.0195L48.6095 10L49.5439 10.0781ZM49.5439 10.0781L48.6095 10L47.6751 10.0781L49.5439 10.0781ZM49.5439 10.0781L48.6095 10L47.6751 10.0781L49.5439 10.0781ZM47.6751 10.0781L47.223 10.1757L46.7891 10.3124L47.6751 10.0781ZM50.4299 10.3124L49.996 10.1757L49.5439 10.0781L50.4299 10.3124ZM47.6751 10.0781L47.223 10.1757L46.7891 10.3124L47.6751 10.0781ZM50.4299 10.3124L49.996 10.1757L49.5439 10.0781L50.4299 10.3124ZM49.5439 10.0781L47.6751 10.0781L46 10.7037L49.5439 10.0781ZM49.5439 10.0781L47.6751 10.0781L46 10.7037L49.5439 10.0781ZM47.6751 10.0781L46.7891 10.3124L46 10.7037L47.6751 10.0781ZM51.219 10.7037L50.4299 10.3124L49.5439 10.0781L51.219 10.7037ZM47.6751 10.0781L46.7891 10.3124L46 10.7037L47.6751 10.0781ZM51.219 10.7037L50.4299 10.3124L49.5439 10.0781L51.219 10.7037ZM46.7891 10.3124L46.3794 10.4883L46 10.7037L46.7891 10.3124ZM51.219 10.7037L50.8396 10.4883L50.4299 10.3124L51.219 10.7037ZM46.7891 10.3124L46.3794 10.4883L46 10.7037L46.7891 10.3124ZM51.219 10.7037L50.8396 10.4883L50.4299 10.3124L51.219 10.7037ZM92.219 38.7429L51.219 10.7037L49.5439 10.0781L92.219 38.7429ZM92.219 38.7429L49.5439 10.0781L46 10.7037L92.219 38.7429ZM92.219 38.7429L51.219 10.7037L49.5439 10.0781L92.219 38.7429ZM92.219 38.7429L49.5439 10.0781L46 10.7037L92.219 38.7429ZM91.1902 36.6792L90.7999 36.3925L51.219 10.7037L91.1902 36.6792ZM46 10.7037L6.41907 36.3925L6.02878 36.6792L46 10.7037ZM91.1902 36.6792L90.7999 36.3925L51.219 10.7037L91.1902 36.6792ZM46 10.7037L6.41907 36.3925L6.02878 36.6792L46 10.7037ZM91.786 37.3202L91.1902 36.6792L51.219 10.7037L91.786 37.3202ZM46 10.7037L6.02878 36.6792L5.43292 37.3202L46 10.7037ZM91.786 37.3202L91.1902 36.6792L51.219 10.7037L91.786 37.3202ZM46 10.7037L6.02878 36.6792L5.43292 37.3202L46 10.7037ZM92.219 38.7429L91.786 37.3202L51.219 10.7037L92.219 38.7429ZM46 10.7037L5.43292 37.3202L5 38.7429L46 10.7037ZM92.219 38.7429L91.786 37.3202L51.219 10.7037L92.219 38.7429ZM46 10.7037L5.43292 37.3202L5 38.7429L46 10.7037Z" fill="white"/>
<path d="M5 38.7429L5.3426 41.5491L5.39679 41.9065L5 38.7429ZM5 38.7429L5.3426 41.5491L5.39679 41.9065L5 38.7429Z" fill="#1E1E1E"/>
<path d="M91.786 37.3203L91.5191 36.99L91.1902 36.6792L91.786 37.3203ZM6.02878 36.6792L5.69984 36.99L5.43292 37.3203L6.02878 36.6792ZM91.786 37.3203L91.5191 36.99L91.1902 36.6792L91.786 37.3203ZM6.02878 36.6792L5.69984 36.99L5.43292 37.3203L6.02878 36.6792Z" fill="white"/>
<path d="M92.1647 39.1004L91.8222 41.9065L91.8763 41.5491L92.1647 39.1004ZM92.1647 39.1004L91.8222 41.9065L91.8763 41.5491L92.1647 39.1004ZM5.05426 39.1004L5.39678 41.9065L5.51699 42.2551L5.05426 39.1004ZM5.05426 39.1004L5.39678 41.9065L5.51699 42.2551L5.05426 39.1004ZM92.0438 39.4489L91.7019 42.2551L91.8222 41.9065L92.0438 39.4489ZM92.0438 39.4489L91.7019 42.2551L91.8222 41.9065L92.0438 39.4489Z" fill="#1E1E1E"/>
<path d="M92.131 38.0206L91.9902 37.6653L91.786 37.3202L92.131 38.0206ZM92.131 38.0206L91.9902 37.6653L91.786 37.3202L92.131 38.0206ZM5.43291 37.3202L5.22872 37.6653L5.088 38.0206L5.43291 37.3202ZM5.43291 37.3202L5.22872 37.6653L5.088 38.0206L5.43291 37.3202Z" fill="white"/>
<path d="M5.17511 39.4489L5.51701 42.255L5.70399 42.5898L5.17511 39.4489ZM5.17511 39.4489L5.51701 42.255L5.70399 42.5898L5.17511 39.4489ZM91.8557 39.7837L91.515 42.5898L91.702 42.255L91.8557 39.7837ZM91.8557 39.7837L91.515 42.5898L91.702 42.255L91.8557 39.7837ZM92.219 38.7429L92.1647 39.1003L91.8764 41.5491L92.219 38.7429ZM92.219 38.7429L92.1647 39.1003L91.8764 41.5491L92.219 38.7429ZM5.36326 39.7837L5.70399 42.5898L5.95847 42.906L5.36326 39.7837ZM5.36326 39.7837L5.70399 42.5898L5.95847 42.906L5.36326 39.7837Z" fill="#1E1E1E"/>
<path d="M92.219 38.7429L92.131 38.0207L91.786 37.3202L92.219 38.7429ZM5.43292 37.3202L5.08801 38.0207L5 38.7429L5.43292 37.3202ZM92.219 38.7429L92.131 38.0207L91.786 37.3202L92.219 38.7429ZM5.43292 37.3202L5.08801 38.0207L5 38.7429L5.43292 37.3202Z" fill="white"/>
<path d="M5.05426 39.1003L4.99998 38.7429L5.39678 41.9065L5.05426 39.1003ZM5.05426 39.1003L4.99998 38.7429L5.39678 41.9065L5.05426 39.1003ZM91.5995 40.1L91.2605 42.906L91.515 42.5899L91.5995 40.1ZM91.5995 40.1L91.2605 42.906L91.515 42.5899L91.5995 40.1ZM92.1647 39.1003L92.0438 39.4489L91.8222 41.9065L92.1647 39.1003ZM92.1647 39.1003L92.0438 39.4489L91.8222 41.9065L92.1647 39.1003ZM5.61945 40.1L5.95845 42.906L6.28114 43.1987L5.61945 40.1ZM5.61945 40.1L5.95845 42.906L6.28114 43.1987L5.61945 40.1Z" fill="#1E1E1E"/>
<path d="M92.219 38.7429L92.2075 38.3814L92.131 38.0207L92.219 38.7429ZM5.08801 38.0207L5.01151 38.3814L5 38.7429L5.08801 38.0207ZM92.219 38.7429L92.2075 38.3814L92.131 38.0207L92.219 38.7429ZM5.08801 38.0207L5.01151 38.3814L5 38.7429L5.08801 38.0207Z" fill="white"/>
<path d="M5.1751 39.4489L5.05428 39.1003L5.517 42.2551L5.1751 39.4489ZM5.1751 39.4489L5.05428 39.1003L5.517 42.2551L5.1751 39.4489ZM91.2745 40.3927L90.9378 43.1987L91.2605 42.906L91.2745 40.3927ZM91.2745 40.3927L90.9378 43.1987L91.2605 42.906L91.2745 40.3927ZM92.0439 39.4489L91.8557 39.7838L91.702 42.2551L92.0439 39.4489ZM92.0439 39.4489L91.8557 39.7838L91.702 42.2551L92.0439 39.4489ZM5.36325 39.7838L5.1751 39.4489L5.70398 42.5899L5.36325 39.7838ZM5.36325 39.7838L5.1751 39.4489L5.70398 42.5899L5.36325 39.7838ZM91.8557 39.7838L91.5995 40.1L91.515 42.5899L91.8557 39.7838ZM91.8557 39.7838L91.5995 40.1L91.515 42.5899L91.8557 39.7838ZM5.61945 40.1L5.36325 39.7838L5.95847 42.906L5.61945 40.1ZM5.61945 40.1L5.36325 39.7838L5.95847 42.906L5.61945 40.1Z" fill="#1E1E1E"/>
<path d="M92.0439 39.4489L92.1647 39.1003L92.219 38.7429L92.0439 39.4489ZM5 38.7429L5.05428 39.1003L5.17511 39.4489L5 38.7429ZM92.0439 39.4489L92.1647 39.1003L92.219 38.7429L92.0439 39.4489ZM5 38.7429L5.05428 39.1003L5.17511 39.4489L5 38.7429Z" fill="white"/>
<path d="M91.5995 40.1L91.2745 40.3927L91.2605 42.906L91.5995 40.1ZM91.5995 40.1L91.2745 40.3927L91.2605 42.906L91.5995 40.1ZM5.94444 40.3927L5.61947 40.1L6.28116 43.1987L5.94444 40.3927ZM5.94444 40.3927L5.61947 40.1L6.28116 43.1987L5.94444 40.3927Z" fill="#1E1E1E"/>
<path d="M91.5995 40.1L92.0439 39.4489L92.219 38.7429L91.5995 40.1ZM5 38.7429L5.17511 39.4489L5.61946 40.1L5 38.7429ZM91.5995 40.1L92.0439 39.4489L92.219 38.7429L91.5995 40.1ZM5 38.7429L5.17511 39.4489L5.61946 40.1L5 38.7429ZM91.5995 40.1L91.8557 39.7837L92.0439 39.4489L91.5995 40.1ZM5.17511 39.4489L5.36326 39.7837L5.61946 40.1L5.17511 39.4489ZM91.5995 40.1L91.8557 39.7837L92.0439 39.4489L91.5995 40.1ZM5.17511 39.4489L5.36326 39.7837L5.61946 40.1L5.17511 39.4489ZM46 10.7036L5 38.7429L46.45 71.6782L46 10.7036ZM46 10.7036L46.45 71.6782L92.219 38.7429L46 10.7036ZM46 10.7036L5 38.7429L46.45 71.6782L46 10.7036ZM46 10.7036L46.45 71.6782L92.219 38.7429L46 10.7036Z" fill="white"/>
<path d="M5.94443 40.3927L6.28115 43.1987L45.5484 73.9097L5.94443 40.3927ZM5.94443 40.3927L6.28115 43.1987L45.5484 73.9097L5.94443 40.3927ZM91.2745 40.3927L51.697 71.129L90.9378 43.1987L91.2745 40.3927ZM91.2745 40.3927L51.697 71.129L90.9378 43.1987L91.2745 40.3927Z" fill="#1E1E1E"/>
<path d="M50.7689 71.6782L91.5995 40.1L92.219 38.7429L50.7689 71.6782ZM5 38.7429L5.61946 40.1L46.45 71.6782L5 38.7429ZM50.7689 71.6782L91.5995 40.1L92.219 38.7429L50.7689 71.6782ZM5 38.7429L5.61946 40.1L46.45 71.6782L5 38.7429ZM51.697 71.129L91.2745 40.3926L91.5995 40.1L51.697 71.129ZM5.61946 40.1L5.94443 40.3926L45.522 71.129L5.61946 40.1ZM51.697 71.129L91.2745 40.3926L91.5995 40.1L51.697 71.129ZM5.61946 40.1L5.94443 40.3926L45.522 71.129L5.61946 40.1Z" fill="white"/>
<path d="M51.6969 71.129L51.6705 73.9097L90.9378 43.1987L51.6969 71.129ZM51.6969 71.129L51.6705 73.9097L90.9378 43.1987L51.6969 71.129ZM45.522 71.129L5.94441 40.3927L45.5484 73.9097L45.522 71.129ZM45.522 71.129L5.94441 40.3927L45.5484 73.9097L45.522 71.129Z" fill="#1E1E1E"/>
<path d="M46.45 71.6782H50.7689L92.219 38.7429L46.45 71.6782ZM46.45 71.6782H50.7689L92.219 38.7429L46.45 71.6782ZM50.7689 71.6782L51.697 71.129L91.5995 40.1L50.7689 71.6782ZM5.61946 40.1L45.522 71.129L46.45 71.6782L5.61946 40.1ZM50.7689 71.6782L51.697 71.129L91.5995 40.1L50.7689 71.6782ZM5.61946 40.1L45.522 71.129L46.45 71.6782L5.61946 40.1Z" fill="white"/>
<path d="M45.522 71.129L45.5484 73.9097L45.9897 74.2111L45.522 71.129ZM45.522 71.129L45.5484 73.9097L45.9897 74.2111L45.522 71.129ZM51.2519 71.4309L51.2292 74.2111L51.6705 73.9097L51.2519 71.4309ZM51.2519 71.4309L51.2292 74.2111L51.6705 73.9097L51.2519 71.4309ZM45.9671 71.4309L45.9897 74.2111L46.4685 74.458L45.9671 71.4309ZM45.9671 71.4309L45.9897 74.2111L46.4685 74.458L45.9671 71.4309ZM50.7689 71.6782L50.7504 74.458L51.2292 74.2111L50.7689 71.6782ZM50.7689 71.6782L50.7504 74.458L51.2292 74.2111L50.7689 71.6782ZM46.45 71.6782L46.4685 74.458L46.9774 74.6503L46.45 71.6782ZM46.45 71.6782L46.4685 74.458L46.9774 74.6503L46.45 71.6782ZM50.2557 71.8708L50.2416 74.6503L50.7504 74.458L50.2557 71.8708ZM50.2557 71.8708L50.2416 74.6503L50.7504 74.458L50.2557 71.8708ZM46.9633 71.8708L46.9774 74.6503L47.5089 74.7878L46.9633 71.8708ZM46.9633 71.8708L46.9774 74.6503L47.5089 74.7878L46.9633 71.8708ZM49.7196 72.0084L49.7101 74.7878L50.2416 74.6503L49.7196 72.0084ZM49.7196 72.0084L49.7101 74.7878L50.2416 74.6503L49.7196 72.0084ZM47.4994 72.0084L47.5089 74.7878L48.0554 74.8703L47.4994 72.0084ZM47.4994 72.0084L47.5089 74.7878L48.0554 74.8703L47.4994 72.0084ZM49.1684 72.0911L49.1636 74.8703L49.7101 74.7878L49.1684 72.0911ZM49.1684 72.0911L49.1636 74.8703L49.7101 74.7878L49.1684 72.0911ZM48.0506 72.0911L48.0554 74.8703L48.6095 74.8978L48.0506 72.0911ZM48.0506 72.0911L48.0554 74.8703L48.6095 74.8978L48.0506 72.0911ZM48.6095 72.1186V74.8978L49.1636 74.8703L48.6095 72.1186ZM48.6095 72.1186V74.8978L49.1636 74.8703L48.6095 72.1186ZM51.697 71.129L51.2519 71.4309L51.6705 73.9097L51.697 71.129ZM51.697 71.129L51.2519 71.4309L51.6705 73.9097L51.697 71.129ZM45.9671 71.4309L45.522 71.129L45.9897 74.2111L45.9671 71.4309ZM45.9671 71.4309L45.522 71.129L45.9897 74.2111L45.9671 71.4309ZM51.2519 71.4309L50.7689 71.6782L51.2292 74.2111L51.2519 71.4309ZM51.2519 71.4309L50.7689 71.6782L51.2292 74.2111L51.2519 71.4309ZM46.45 71.6782L45.9671 71.4309L46.4685 74.458L46.45 71.6782ZM46.45 71.6782L45.9671 71.4309L46.4685 74.458L46.45 71.6782ZM50.7689 71.6782L50.2557 71.8708L50.7504 74.458L50.7689 71.6782ZM50.7689 71.6782L50.2557 71.8708L50.7504 74.458L50.7689 71.6782ZM46.9633 71.8708L46.45 71.6782L46.9774 74.6503L46.9633 71.8708ZM46.9633 71.8708L46.45 71.6782L46.9774 74.6503L46.9633 71.8708ZM50.2557 71.8708L49.7196 72.0084L50.2416 74.6503L50.2557 71.8708ZM50.2557 71.8708L49.7196 72.0084L50.2416 74.6503L50.2557 71.8708ZM47.4994 72.0084L46.9633 71.8708L47.5089 74.7878L47.4994 72.0084ZM47.4994 72.0084L46.9633 71.8708L47.5089 74.7878L47.4994 72.0084ZM49.7196 72.0084L49.1684 72.0911L49.7101 74.7878L49.7196 72.0084ZM49.7196 72.0084L49.1684 72.0911L49.7101 74.7878L49.7196 72.0084ZM48.0506 72.0911L47.4994 72.0084L48.0554 74.8703L48.0506 72.0911ZM48.0506 72.0911L47.4994 72.0084L48.0554 74.8703L48.0506 72.0911ZM49.1684 72.0911L48.6095 72.1186L49.1636 74.8703L49.1684 72.0911ZM49.1684 72.0911L48.6095 72.1186L49.1636 74.8703L49.1684 72.0911ZM48.6095 72.1186L48.0506 72.0911L48.6095 74.8978V72.1186ZM48.6095 72.1186L48.0506 72.0911L48.6095 74.8978V72.1186Z" fill="#1E1E1E"/>
<path d="M50.7689 71.6782L51.2519 71.4309L51.697 71.129L50.7689 71.6782ZM45.522 71.129L45.9671 71.4309L46.45 71.6782L45.522 71.129ZM50.7689 71.6782L51.2519 71.4309L51.697 71.129L50.7689 71.6782ZM45.522 71.129L45.9671 71.4309L46.45 71.6782L45.522 71.129ZM46.45 71.6782L48.6095 72.1187L50.7689 71.6782H46.45ZM46.45 71.6782L48.6095 72.1187L50.7689 71.6782H46.45ZM49.7196 72.0084L50.2557 71.8708L50.7689 71.6782L49.7196 72.0084ZM46.45 71.6782L46.9633 71.8708L47.4994 72.0084L46.45 71.6782ZM49.7196 72.0084L50.2557 71.8708L50.7689 71.6782L49.7196 72.0084ZM46.45 71.6782L46.9633 71.8708L47.4994 72.0084L46.45 71.6782ZM48.6095 72.1187L49.7196 72.0084L50.7689 71.6782L48.6095 72.1187ZM46.45 71.6782L47.4994 72.0084L48.6095 72.1187L46.45 71.6782ZM48.6095 72.1187L49.7196 72.0084L50.7689 71.6782L48.6095 72.1187ZM46.45 71.6782L47.4994 72.0084L48.6095 72.1187L46.45 71.6782ZM47.4994 72.0084L48.0506 72.0911L48.6095 72.1187L47.4994 72.0084ZM47.4994 72.0084L48.0506 72.0911L48.6095 72.1187L47.4994 72.0084ZM48.6095 72.1187L49.1684 72.0911L49.7196 72.0084L48.6095 72.1187ZM48.6095 72.1187L49.1684 72.0911L49.7196 72.0084L48.6095 72.1187Z" fill="white"/>
<g filter="url(#filter0_dd_201_15050)">
<path d="M47.6095 2.67029e-05L47.1393 0.0195293L46.6751 0.0780602L47.6095 2.67029e-05ZM48.5439 0.0780602L48.0797 0.0195293L47.6095 2.67029e-05L48.5439 0.0780602ZM47.6095 2.67029e-05L47.1393 0.0195293L46.6751 0.0780602L47.6095 2.67029e-05ZM48.5439 0.0780602L48.0797 0.0195293L47.6095 2.67029e-05L48.5439 0.0780602ZM48.5439 0.0780602L47.6095 2.67029e-05L46.6751 0.0780602L48.5439 0.0780602ZM48.5439 0.0780602L47.6095 2.67029e-05L46.6751 0.0780602L48.5439 0.0780602ZM46.6751 0.0780602L46.223 0.175653L45.7891 0.312382L46.6751 0.0780602ZM49.4299 0.312382L48.996 0.175653L48.5439 0.0780602L49.4299 0.312382ZM46.6751 0.0780602L46.223 0.175653L45.7891 0.312382L46.6751 0.0780602ZM49.4299 0.312382L48.996 0.175653L48.5439 0.0780602L49.4299 0.312382ZM48.5439 0.0780602L46.6751 0.0780602L45 0.703659L48.5439 0.0780602ZM48.5439 0.0780602L46.6751 0.0780602L45 0.703659L48.5439 0.0780602ZM46.6751 0.0780602L45.7891 0.312382L45 0.703659L46.6751 0.0780602ZM50.219 0.703659L49.4299 0.312382L48.5439 0.0780602L50.219 0.703659ZM46.6751 0.0780602L45.7891 0.312382L45 0.703659L46.6751 0.0780602ZM50.219 0.703659L49.4299 0.312382L48.5439 0.0780602L50.219 0.703659ZM45.7891 0.312382L45.3794 0.488342L45 0.703659L45.7891 0.312382ZM50.219 0.703659L49.8396 0.488342L49.4299 0.312382L50.219 0.703659ZM45.7891 0.312382L45.3794 0.488342L45 0.703659L45.7891 0.312382ZM50.219 0.703659L49.8396 0.488342L49.4299 0.312382L50.219 0.703659ZM91.219 28.7429L50.219 0.703659L48.5439 0.0780602L91.219 28.7429ZM91.219 28.7429L48.5439 0.0780602L45 0.703659L91.219 28.7429ZM91.219 28.7429L50.219 0.703659L48.5439 0.0780602L91.219 28.7429ZM91.219 28.7429L48.5439 0.0780602L45 0.703659L91.219 28.7429ZM90.1902 26.6792L89.7999 26.3925L50.219 0.703659L90.1902 26.6792ZM45 0.703659L5.41907 26.3925L5.02878 26.6792L45 0.703659ZM90.1902 26.6792L89.7999 26.3925L50.219 0.703659L90.1902 26.6792ZM45 0.703659L5.41907 26.3925L5.02878 26.6792L45 0.703659ZM90.786 27.3202L90.1902 26.6792L50.219 0.703659L90.786 27.3202ZM45 0.703659L5.02878 26.6792L4.43292 27.3202L45 0.703659ZM90.786 27.3202L90.1902 26.6792L50.219 0.703659L90.786 27.3202ZM45 0.703659L5.02878 26.6792L4.43292 27.3202L45 0.703659ZM91.219 28.7429L90.786 27.3202L50.219 0.703659L91.219 28.7429ZM45 0.703659L4.43292 27.3202L4 28.7429L45 0.703659ZM91.219 28.7429L90.786 27.3202L50.219 0.703659L91.219 28.7429ZM45 0.703659L4.43292 27.3202L4 28.7429L45 0.703659Z" fill="white"/>
<path d="M47.6095 2.67029e-05L47.1393 0.0195293L46.6751 0.0780602L47.6095 2.67029e-05ZM48.5439 0.0780602L48.0797 0.0195293L47.6095 2.67029e-05L48.5439 0.0780602ZM47.6095 2.67029e-05L47.1393 0.0195293L46.6751 0.0780602L47.6095 2.67029e-05ZM48.5439 0.0780602L48.0797 0.0195293L47.6095 2.67029e-05L48.5439 0.0780602ZM48.5439 0.0780602L47.6095 2.67029e-05L46.6751 0.0780602L48.5439 0.0780602ZM48.5439 0.0780602L47.6095 2.67029e-05L46.6751 0.0780602L48.5439 0.0780602ZM46.6751 0.0780602L46.223 0.175653L45.7891 0.312382L46.6751 0.0780602ZM49.4299 0.312382L48.996 0.175653L48.5439 0.0780602L49.4299 0.312382ZM46.6751 0.0780602L46.223 0.175653L45.7891 0.312382L46.6751 0.0780602ZM49.4299 0.312382L48.996 0.175653L48.5439 0.0780602L49.4299 0.312382ZM48.5439 0.0780602L46.6751 0.0780602L45 0.703659L48.5439 0.0780602ZM48.5439 0.0780602L46.6751 0.0780602L45 0.703659L48.5439 0.0780602ZM46.6751 0.0780602L45.7891 0.312382L45 0.703659L46.6751 0.0780602ZM50.219 0.703659L49.4299 0.312382L48.5439 0.0780602L50.219 0.703659ZM46.6751 0.0780602L45.7891 0.312382L45 0.703659L46.6751 0.0780602ZM50.219 0.703659L49.4299 0.312382L48.5439 0.0780602L50.219 0.703659ZM45.7891 0.312382L45.3794 0.488342L45 0.703659L45.7891 0.312382ZM50.219 0.703659L49.8396 0.488342L49.4299 0.312382L50.219 0.703659ZM45.7891 0.312382L45.3794 0.488342L45 0.703659L45.7891 0.312382ZM50.219 0.703659L49.8396 0.488342L49.4299 0.312382L50.219 0.703659ZM91.219 28.7429L50.219 0.703659L48.5439 0.0780602L91.219 28.7429ZM91.219 28.7429L48.5439 0.0780602L45 0.703659L91.219 28.7429ZM91.219 28.7429L50.219 0.703659L48.5439 0.0780602L91.219 28.7429ZM91.219 28.7429L48.5439 0.0780602L45 0.703659L91.219 28.7429ZM90.1902 26.6792L89.7999 26.3925L50.219 0.703659L90.1902 26.6792ZM45 0.703659L5.41907 26.3925L5.02878 26.6792L45 0.703659ZM90.1902 26.6792L89.7999 26.3925L50.219 0.703659L90.1902 26.6792ZM45 0.703659L5.41907 26.3925L5.02878 26.6792L45 0.703659ZM90.786 27.3202L90.1902 26.6792L50.219 0.703659L90.786 27.3202ZM45 0.703659L5.02878 26.6792L4.43292 27.3202L45 0.703659ZM90.786 27.3202L90.1902 26.6792L50.219 0.703659L90.786 27.3202ZM45 0.703659L5.02878 26.6792L4.43292 27.3202L45 0.703659ZM91.219 28.7429L90.786 27.3202L50.219 0.703659L91.219 28.7429ZM45 0.703659L4.43292 27.3202L4 28.7429L45 0.703659ZM91.219 28.7429L90.786 27.3202L50.219 0.703659L91.219 28.7429ZM45 0.703659L4.43292 27.3202L4 28.7429L45 0.703659Z" fill="white"/>
<path d="M4 28.7429L4.3426 31.5491L4.39679 31.9065L4 28.7429ZM4 28.7429L4.3426 31.5491L4.39679 31.9065L4 28.7429Z" fill="#1E1E1E"/>
<path d="M90.786 27.3203L90.5191 26.99L90.1902 26.6792L90.786 27.3203ZM5.02878 26.6792L4.69984 26.99L4.43292 27.3203L5.02878 26.6792ZM90.786 27.3203L90.5191 26.99L90.1902 26.6792L90.786 27.3203ZM5.02878 26.6792L4.69984 26.99L4.43292 27.3203L5.02878 26.6792Z" fill="white"/>
<path d="M90.786 27.3203L90.5191 26.99L90.1902 26.6792L90.786 27.3203ZM5.02878 26.6792L4.69984 26.99L4.43292 27.3203L5.02878 26.6792ZM90.786 27.3203L90.5191 26.99L90.1902 26.6792L90.786 27.3203ZM5.02878 26.6792L4.69984 26.99L4.43292 27.3203L5.02878 26.6792Z" fill="white"/>
<path d="M91.1647 29.1004L90.8222 31.9065L90.8763 31.5491L91.1647 29.1004ZM91.1647 29.1004L90.8222 31.9065L90.8763 31.5491L91.1647 29.1004ZM4.05426 29.1004L4.39678 31.9065L4.51699 32.2551L4.05426 29.1004ZM4.05426 29.1004L4.39678 31.9065L4.51699 32.2551L4.05426 29.1004ZM91.0438 29.4489L90.7019 32.2551L90.8222 31.9065L91.0438 29.4489ZM91.0438 29.4489L90.7019 32.2551L90.8222 31.9065L91.0438 29.4489Z" fill="#1E1E1E"/>
<path d="M91.1647 29.1004L90.8222 31.9065L90.8763 31.5491L91.1647 29.1004ZM91.1647 29.1004L90.8222 31.9065L90.8763 31.5491L91.1647 29.1004ZM4.05426 29.1004L4.39678 31.9065L4.51699 32.2551L4.05426 29.1004ZM4.05426 29.1004L4.39678 31.9065L4.51699 32.2551L4.05426 29.1004ZM91.0438 29.4489L90.7019 32.2551L90.8222 31.9065L91.0438 29.4489ZM91.0438 29.4489L90.7019 32.2551L90.8222 31.9065L91.0438 29.4489Z" fill="#1E1E1E"/>
<path d="M91.131 28.0206L90.9902 27.6653L90.786 27.3202L91.131 28.0206ZM91.131 28.0206L90.9902 27.6653L90.786 27.3202L91.131 28.0206ZM4.43291 27.3202L4.22872 27.6653L4.088 28.0206L4.43291 27.3202ZM4.43291 27.3202L4.22872 27.6653L4.088 28.0206L4.43291 27.3202Z" fill="white"/>
<path d="M91.131 28.0206L90.9902 27.6653L90.786 27.3202L91.131 28.0206ZM91.131 28.0206L90.9902 27.6653L90.786 27.3202L91.131 28.0206ZM4.43291 27.3202L4.22872 27.6653L4.088 28.0206L4.43291 27.3202ZM4.43291 27.3202L4.22872 27.6653L4.088 28.0206L4.43291 27.3202Z" fill="white"/>
<path d="M4.17511 29.4489L4.51701 32.255L4.70399 32.5898L4.17511 29.4489ZM4.17511 29.4489L4.51701 32.255L4.70399 32.5898L4.17511 29.4489ZM90.8557 29.7837L90.515 32.5898L90.702 32.255L90.8557 29.7837ZM90.8557 29.7837L90.515 32.5898L90.702 32.255L90.8557 29.7837ZM91.219 28.7429L91.1647 29.1003L90.8764 31.5491L91.219 28.7429ZM91.219 28.7429L91.1647 29.1003L90.8764 31.5491L91.219 28.7429ZM4.36326 29.7837L4.70399 32.5898L4.95847 32.906L4.36326 29.7837ZM4.36326 29.7837L4.70399 32.5898L4.95847 32.906L4.36326 29.7837Z" fill="#1E1E1E"/>
<path d="M4.17511 29.4489L4.51701 32.255L4.70399 32.5898L4.17511 29.4489ZM4.17511 29.4489L4.51701 32.255L4.70399 32.5898L4.17511 29.4489ZM90.8557 29.7837L90.515 32.5898L90.702 32.255L90.8557 29.7837ZM90.8557 29.7837L90.515 32.5898L90.702 32.255L90.8557 29.7837ZM91.219 28.7429L91.1647 29.1003L90.8764 31.5491L91.219 28.7429ZM91.219 28.7429L91.1647 29.1003L90.8764 31.5491L91.219 28.7429ZM4.36326 29.7837L4.70399 32.5898L4.95847 32.906L4.36326 29.7837ZM4.36326 29.7837L4.70399 32.5898L4.95847 32.906L4.36326 29.7837Z" fill="#1E1E1E"/>
<path d="M91.219 28.7429L91.131 28.0207L90.786 27.3202L91.219 28.7429ZM4.43292 27.3202L4.08801 28.0207L4 28.7429L4.43292 27.3202ZM91.219 28.7429L91.131 28.0207L90.786 27.3202L91.219 28.7429ZM4.43292 27.3202L4.08801 28.0207L4 28.7429L4.43292 27.3202Z" fill="white"/>
<path d="M91.219 28.7429L91.131 28.0207L90.786 27.3202L91.219 28.7429ZM4.43292 27.3202L4.08801 28.0207L4 28.7429L4.43292 27.3202ZM91.219 28.7429L91.131 28.0207L90.786 27.3202L91.219 28.7429ZM4.43292 27.3202L4.08801 28.0207L4 28.7429L4.43292 27.3202Z" fill="white"/>
<path d="M4.05426 29.1003L3.99998 28.7429L4.39678 31.9065L4.05426 29.1003ZM4.05426 29.1003L3.99998 28.7429L4.39678 31.9065L4.05426 29.1003ZM90.5995 30.1L90.2605 32.906L90.515 32.5899L90.5995 30.1ZM90.5995 30.1L90.2605 32.906L90.515 32.5899L90.5995 30.1ZM91.1647 29.1003L91.0438 29.4489L90.8222 31.9065L91.1647 29.1003ZM91.1647 29.1003L91.0438 29.4489L90.8222 31.9065L91.1647 29.1003ZM4.61945 30.1L4.95845 32.906L5.28114 33.1987L4.61945 30.1ZM4.61945 30.1L4.95845 32.906L5.28114 33.1987L4.61945 30.1Z" fill="#1E1E1E"/>
<path d="M4.05426 29.1003L3.99998 28.7429L4.39678 31.9065L4.05426 29.1003ZM4.05426 29.1003L3.99998 28.7429L4.39678 31.9065L4.05426 29.1003ZM90.5995 30.1L90.2605 32.906L90.515 32.5899L90.5995 30.1ZM90.5995 30.1L90.2605 32.906L90.515 32.5899L90.5995 30.1ZM91.1647 29.1003L91.0438 29.4489L90.8222 31.9065L91.1647 29.1003ZM91.1647 29.1003L91.0438 29.4489L90.8222 31.9065L91.1647 29.1003ZM4.61945 30.1L4.95845 32.906L5.28114 33.1987L4.61945 30.1ZM4.61945 30.1L4.95845 32.906L5.28114 33.1987L4.61945 30.1Z" fill="#1E1E1E"/>
<path d="M91.219 28.7429L91.2075 28.3814L91.131 28.0207L91.219 28.7429ZM4.08801 28.0207L4.01151 28.3814L4 28.7429L4.08801 28.0207ZM91.219 28.7429L91.2075 28.3814L91.131 28.0207L91.219 28.7429ZM4.08801 28.0207L4.01151 28.3814L4 28.7429L4.08801 28.0207Z" fill="white"/>
<path d="M91.219 28.7429L91.2075 28.3814L91.131 28.0207L91.219 28.7429ZM4.08801 28.0207L4.01151 28.3814L4 28.7429L4.08801 28.0207ZM91.219 28.7429L91.2075 28.3814L91.131 28.0207L91.219 28.7429ZM4.08801 28.0207L4.01151 28.3814L4 28.7429L4.08801 28.0207Z" fill="white"/>
<path d="M4.1751 29.4489L4.05428 29.1003L4.517 32.2551L4.1751 29.4489ZM4.1751 29.4489L4.05428 29.1003L4.517 32.2551L4.1751 29.4489ZM90.2745 30.3927L89.9378 33.1987L90.2605 32.906L90.2745 30.3927ZM90.2745 30.3927L89.9378 33.1987L90.2605 32.906L90.2745 30.3927ZM91.0439 29.4489L90.8557 29.7838L90.702 32.2551L91.0439 29.4489ZM91.0439 29.4489L90.8557 29.7838L90.702 32.2551L91.0439 29.4489ZM4.36325 29.7838L4.1751 29.4489L4.70398 32.5899L4.36325 29.7838ZM4.36325 29.7838L4.1751 29.4489L4.70398 32.5899L4.36325 29.7838ZM90.8557 29.7838L90.5995 30.1L90.515 32.5899L90.8557 29.7838ZM90.8557 29.7838L90.5995 30.1L90.515 32.5899L90.8557 29.7838ZM4.61945 30.1L4.36325 29.7838L4.95847 32.906L4.61945 30.1ZM4.61945 30.1L4.36325 29.7838L4.95847 32.906L4.61945 30.1Z" fill="#1E1E1E"/>
<path d="M4.1751 29.4489L4.05428 29.1003L4.517 32.2551L4.1751 29.4489ZM4.1751 29.4489L4.05428 29.1003L4.517 32.2551L4.1751 29.4489ZM90.2745 30.3927L89.9378 33.1987L90.2605 32.906L90.2745 30.3927ZM90.2745 30.3927L89.9378 33.1987L90.2605 32.906L90.2745 30.3927ZM91.0439 29.4489L90.8557 29.7838L90.702 32.2551L91.0439 29.4489ZM91.0439 29.4489L90.8557 29.7838L90.702 32.2551L91.0439 29.4489ZM4.36325 29.7838L4.1751 29.4489L4.70398 32.5899L4.36325 29.7838ZM4.36325 29.7838L4.1751 29.4489L4.70398 32.5899L4.36325 29.7838ZM90.8557 29.7838L90.5995 30.1L90.515 32.5899L90.8557 29.7838ZM90.8557 29.7838L90.5995 30.1L90.515 32.5899L90.8557 29.7838ZM4.61945 30.1L4.36325 29.7838L4.95847 32.906L4.61945 30.1ZM4.61945 30.1L4.36325 29.7838L4.95847 32.906L4.61945 30.1Z" fill="#1E1E1E"/>
<path d="M91.0439 29.4489L91.1647 29.1003L91.219 28.7429L91.0439 29.4489ZM4 28.7429L4.05428 29.1003L4.17511 29.4489L4 28.7429ZM91.0439 29.4489L91.1647 29.1003L91.219 28.7429L91.0439 29.4489ZM4 28.7429L4.05428 29.1003L4.17511 29.4489L4 28.7429Z" fill="white"/>
<path d="M91.0439 29.4489L91.1647 29.1003L91.219 28.7429L91.0439 29.4489ZM4 28.7429L4.05428 29.1003L4.17511 29.4489L4 28.7429ZM91.0439 29.4489L91.1647 29.1003L91.219 28.7429L91.0439 29.4489ZM4 28.7429L4.05428 29.1003L4.17511 29.4489L4 28.7429Z" fill="white"/>
<path d="M90.5995 30.1L90.2745 30.3927L90.2605 32.906L90.5995 30.1ZM90.5995 30.1L90.2745 30.3927L90.2605 32.906L90.5995 30.1ZM4.94444 30.3927L4.61947 30.1L5.28116 33.1987L4.94444 30.3927ZM4.94444 30.3927L4.61947 30.1L5.28116 33.1987L4.94444 30.3927Z" fill="#1E1E1E"/>
<path d="M90.5995 30.1L90.2745 30.3927L90.2605 32.906L90.5995 30.1ZM90.5995 30.1L90.2745 30.3927L90.2605 32.906L90.5995 30.1ZM4.94444 30.3927L4.61947 30.1L5.28116 33.1987L4.94444 30.3927ZM4.94444 30.3927L4.61947 30.1L5.28116 33.1987L4.94444 30.3927Z" fill="#1E1E1E"/>
<path d="M90.5995 30.1L91.0439 29.4489L91.219 28.7429L90.5995 30.1ZM4 28.7429L4.17511 29.4489L4.61946 30.1L4 28.7429ZM90.5995 30.1L91.0439 29.4489L91.219 28.7429L90.5995 30.1ZM4 28.7429L4.17511 29.4489L4.61946 30.1L4 28.7429ZM90.5995 30.1L90.8557 29.7837L91.0439 29.4489L90.5995 30.1ZM4.17511 29.4489L4.36326 29.7837L4.61946 30.1L4.17511 29.4489ZM90.5995 30.1L90.8557 29.7837L91.0439 29.4489L90.5995 30.1ZM4.17511 29.4489L4.36326 29.7837L4.61946 30.1L4.17511 29.4489ZM45 0.703621L4 28.7429L45.45 61.6782L45 0.703621ZM45 0.703621L45.45 61.6782L91.219 28.7429L45 0.703621ZM45 0.703621L4 28.7429L45.45 61.6782L45 0.703621ZM45 0.703621L45.45 61.6782L91.219 28.7429L45 0.703621Z" fill="white"/>
<path d="M90.5995 30.1L91.0439 29.4489L91.219 28.7429L90.5995 30.1ZM4 28.7429L4.17511 29.4489L4.61946 30.1L4 28.7429ZM90.5995 30.1L91.0439 29.4489L91.219 28.7429L90.5995 30.1ZM4 28.7429L4.17511 29.4489L4.61946 30.1L4 28.7429ZM90.5995 30.1L90.8557 29.7837L91.0439 29.4489L90.5995 30.1ZM4.17511 29.4489L4.36326 29.7837L4.61946 30.1L4.17511 29.4489ZM90.5995 30.1L90.8557 29.7837L91.0439 29.4489L90.5995 30.1ZM4.17511 29.4489L4.36326 29.7837L4.61946 30.1L4.17511 29.4489ZM45 0.703621L4 28.7429L45.45 61.6782L45 0.703621ZM45 0.703621L45.45 61.6782L91.219 28.7429L45 0.703621ZM45 0.703621L4 28.7429L45.45 61.6782L45 0.703621ZM45 0.703621L45.45 61.6782L91.219 28.7429L45 0.703621Z" fill="white"/>
<path d="M4.94443 30.3927L5.28115 33.1987L44.5484 63.9097L4.94443 30.3927ZM4.94443 30.3927L5.28115 33.1987L44.5484 63.9097L4.94443 30.3927ZM90.2745 30.3927L50.697 61.129L89.9378 33.1987L90.2745 30.3927ZM90.2745 30.3927L50.697 61.129L89.9378 33.1987L90.2745 30.3927Z" fill="#1E1E1E"/>
<path d="M4.94443 30.3927L5.28115 33.1987L44.5484 63.9097L4.94443 30.3927ZM4.94443 30.3927L5.28115 33.1987L44.5484 63.9097L4.94443 30.3927ZM90.2745 30.3927L50.697 61.129L89.9378 33.1987L90.2745 30.3927ZM90.2745 30.3927L50.697 61.129L89.9378 33.1987L90.2745 30.3927Z" fill="#1E1E1E"/>
<path d="M49.7689 61.6782L90.5995 30.1L91.219 28.7429L49.7689 61.6782ZM4 28.7429L4.61946 30.1L45.45 61.6782L4 28.7429ZM49.7689 61.6782L90.5995 30.1L91.219 28.7429L49.7689 61.6782ZM4 28.7429L4.61946 30.1L45.45 61.6782L4 28.7429ZM50.697 61.129L90.2745 30.3926L90.5995 30.1L50.697 61.129ZM4.61946 30.1L4.94443 30.3926L44.522 61.129L4.61946 30.1ZM50.697 61.129L90.2745 30.3926L90.5995 30.1L50.697 61.129ZM4.61946 30.1L4.94443 30.3926L44.522 61.129L4.61946 30.1Z" fill="white"/>
<path d="M49.7689 61.6782L90.5995 30.1L91.219 28.7429L49.7689 61.6782ZM4 28.7429L4.61946 30.1L45.45 61.6782L4 28.7429ZM49.7689 61.6782L90.5995 30.1L91.219 28.7429L49.7689 61.6782ZM4 28.7429L4.61946 30.1L45.45 61.6782L4 28.7429ZM50.697 61.129L90.2745 30.3926L90.5995 30.1L50.697 61.129ZM4.61946 30.1L4.94443 30.3926L44.522 61.129L4.61946 30.1ZM50.697 61.129L90.2745 30.3926L90.5995 30.1L50.697 61.129ZM4.61946 30.1L4.94443 30.3926L44.522 61.129L4.61946 30.1Z" fill="white"/>
<path d="M50.6969 61.129L50.6705 63.9097L89.9378 33.1987L50.6969 61.129ZM50.6969 61.129L50.6705 63.9097L89.9378 33.1987L50.6969 61.129ZM44.522 61.129L4.94441 30.3927L44.5484 63.9097L44.522 61.129ZM44.522 61.129L4.94441 30.3927L44.5484 63.9097L44.522 61.129Z" fill="#1E1E1E"/>
<path d="M50.6969 61.129L50.6705 63.9097L89.9378 33.1987L50.6969 61.129ZM50.6969 61.129L50.6705 63.9097L89.9378 33.1987L50.6969 61.129ZM44.522 61.129L4.94441 30.3927L44.5484 63.9097L44.522 61.129ZM44.522 61.129L4.94441 30.3927L44.5484 63.9097L44.522 61.129Z" fill="#1E1E1E"/>
<path d="M45.45 61.6782H49.7689L91.219 28.7429L45.45 61.6782ZM45.45 61.6782H49.7689L91.219 28.7429L45.45 61.6782ZM49.7689 61.6782L50.697 61.129L90.5995 30.1L49.7689 61.6782ZM4.61946 30.1L44.522 61.129L45.45 61.6782L4.61946 30.1ZM49.7689 61.6782L50.697 61.129L90.5995 30.1L49.7689 61.6782ZM4.61946 30.1L44.522 61.129L45.45 61.6782L4.61946 30.1Z" fill="white"/>
<path d="M45.45 61.6782H49.7689L91.219 28.7429L45.45 61.6782ZM45.45 61.6782H49.7689L91.219 28.7429L45.45 61.6782ZM49.7689 61.6782L50.697 61.129L90.5995 30.1L49.7689 61.6782ZM4.61946 30.1L44.522 61.129L45.45 61.6782L4.61946 30.1ZM49.7689 61.6782L50.697 61.129L90.5995 30.1L49.7689 61.6782ZM4.61946 30.1L44.522 61.129L45.45 61.6782L4.61946 30.1Z" fill="white"/>
<path d="M44.522 61.129L44.5484 63.9097L44.9897 64.2111L44.522 61.129ZM44.522 61.129L44.5484 63.9097L44.9897 64.2111L44.522 61.129ZM50.2519 61.4309L50.2292 64.2111L50.6705 63.9097L50.2519 61.4309ZM50.2519 61.4309L50.2292 64.2111L50.6705 63.9097L50.2519 61.4309ZM44.9671 61.4309L44.9897 64.2111L45.4685 64.458L44.9671 61.4309ZM44.9671 61.4309L44.9897 64.2111L45.4685 64.458L44.9671 61.4309ZM49.7689 61.6782L49.7504 64.458L50.2292 64.2111L49.7689 61.6782ZM49.7689 61.6782L49.7504 64.458L50.2292 64.2111L49.7689 61.6782ZM45.45 61.6782L45.4685 64.458L45.9774 64.6503L45.45 61.6782ZM45.45 61.6782L45.4685 64.458L45.9774 64.6503L45.45 61.6782ZM49.2557 61.8708L49.2416 64.6503L49.7504 64.458L49.2557 61.8708ZM49.2557 61.8708L49.2416 64.6503L49.7504 64.458L49.2557 61.8708ZM45.9633 61.8708L45.9774 64.6503L46.5089 64.7878L45.9633 61.8708ZM45.9633 61.8708L45.9774 64.6503L46.5089 64.7878L45.9633 61.8708ZM48.7196 62.0084L48.7101 64.7878L49.2416 64.6503L48.7196 62.0084ZM48.7196 62.0084L48.7101 64.7878L49.2416 64.6503L48.7196 62.0084ZM46.4994 62.0084L46.5089 64.7878L47.0554 64.8703L46.4994 62.0084ZM46.4994 62.0084L46.5089 64.7878L47.0554 64.8703L46.4994 62.0084ZM48.1684 62.0911L48.1636 64.8703L48.7101 64.7878L48.1684 62.0911ZM48.1684 62.0911L48.1636 64.8703L48.7101 64.7878L48.1684 62.0911ZM47.0506 62.0911L47.0554 64.8703L47.6095 64.8978L47.0506 62.0911ZM47.0506 62.0911L47.0554 64.8703L47.6095 64.8978L47.0506 62.0911ZM47.6095 62.1186V64.8978L48.1636 64.8703L47.6095 62.1186ZM47.6095 62.1186V64.8978L48.1636 64.8703L47.6095 62.1186ZM50.697 61.129L50.2519 61.4309L50.6705 63.9097L50.697 61.129ZM50.697 61.129L50.2519 61.4309L50.6705 63.9097L50.697 61.129ZM44.9671 61.4309L44.522 61.129L44.9897 64.2111L44.9671 61.4309ZM44.9671 61.4309L44.522 61.129L44.9897 64.2111L44.9671 61.4309ZM50.2519 61.4309L49.7689 61.6782L50.2292 64.2111L50.2519 61.4309ZM50.2519 61.4309L49.7689 61.6782L50.2292 64.2111L50.2519 61.4309ZM45.45 61.6782L44.9671 61.4309L45.4685 64.458L45.45 61.6782ZM45.45 61.6782L44.9671 61.4309L45.4685 64.458L45.45 61.6782ZM49.7689 61.6782L49.2557 61.8708L49.7504 64.458L49.7689 61.6782ZM49.7689 61.6782L49.2557 61.8708L49.7504 64.458L49.7689 61.6782ZM45.9633 61.8708L45.45 61.6782L45.9774 64.6503L45.9633 61.8708ZM45.9633 61.8708L45.45 61.6782L45.9774 64.6503L45.9633 61.8708ZM49.2557 61.8708L48.7196 62.0084L49.2416 64.6503L49.2557 61.8708ZM49.2557 61.8708L48.7196 62.0084L49.2416 64.6503L49.2557 61.8708ZM46.4994 62.0084L45.9633 61.8708L46.5089 64.7878L46.4994 62.0084ZM46.4994 62.0084L45.9633 61.8708L46.5089 64.7878L46.4994 62.0084ZM48.7196 62.0084L48.1684 62.0911L48.7101 64.7878L48.7196 62.0084ZM48.7196 62.0084L48.1684 62.0911L48.7101 64.7878L48.7196 62.0084ZM47.0506 62.0911L46.4994 62.0084L47.0554 64.8703L47.0506 62.0911ZM47.0506 62.0911L46.4994 62.0084L47.0554 64.8703L47.0506 62.0911ZM48.1684 62.0911L47.6095 62.1186L48.1636 64.8703L48.1684 62.0911ZM48.1684 62.0911L47.6095 62.1186L48.1636 64.8703L48.1684 62.0911ZM47.6095 62.1186L47.0506 62.0911L47.6095 64.8978V62.1186ZM47.6095 62.1186L47.0506 62.0911L47.6095 64.8978V62.1186Z" fill="#1E1E1E"/>
<path d="M44.522 61.129L44.5484 63.9097L44.9897 64.2111L44.522 61.129ZM44.522 61.129L44.5484 63.9097L44.9897 64.2111L44.522 61.129ZM50.2519 61.4309L50.2292 64.2111L50.6705 63.9097L50.2519 61.4309ZM50.2519 61.4309L50.2292 64.2111L50.6705 63.9097L50.2519 61.4309ZM44.9671 61.4309L44.9897 64.2111L45.4685 64.458L44.9671 61.4309ZM44.9671 61.4309L44.9897 64.2111L45.4685 64.458L44.9671 61.4309ZM49.7689 61.6782L49.7504 64.458L50.2292 64.2111L49.7689 61.6782ZM49.7689 61.6782L49.7504 64.458L50.2292 64.2111L49.7689 61.6782ZM45.45 61.6782L45.4685 64.458L45.9774 64.6503L45.45 61.6782ZM45.45 61.6782L45.4685 64.458L45.9774 64.6503L45.45 61.6782ZM49.2557 61.8708L49.2416 64.6503L49.7504 64.458L49.2557 61.8708ZM49.2557 61.8708L49.2416 64.6503L49.7504 64.458L49.2557 61.8708ZM45.9633 61.8708L45.9774 64.6503L46.5089 64.7878L45.9633 61.8708ZM45.9633 61.8708L45.9774 64.6503L46.5089 64.7878L45.9633 61.8708ZM48.7196 62.0084L48.7101 64.7878L49.2416 64.6503L48.7196 62.0084ZM48.7196 62.0084L48.7101 64.7878L49.2416 64.6503L48.7196 62.0084ZM46.4994 62.0084L46.5089 64.7878L47.0554 64.8703L46.4994 62.0084ZM46.4994 62.0084L46.5089 64.7878L47.0554 64.8703L46.4994 62.0084ZM48.1684 62.0911L48.1636 64.8703L48.7101 64.7878L48.1684 62.0911ZM48.1684 62.0911L48.1636 64.8703L48.7101 64.7878L48.1684 62.0911ZM47.0506 62.0911L47.0554 64.8703L47.6095 64.8978L47.0506 62.0911ZM47.0506 62.0911L47.0554 64.8703L47.6095 64.8978L47.0506 62.0911ZM47.6095 62.1186V64.8978L48.1636 64.8703L47.6095 62.1186ZM47.6095 62.1186V64.8978L48.1636 64.8703L47.6095 62.1186ZM50.697 61.129L50.2519 61.4309L50.6705 63.9097L50.697 61.129ZM50.697 61.129L50.2519 61.4309L50.6705 63.9097L50.697 61.129ZM44.9671 61.4309L44.522 61.129L44.9897 64.2111L44.9671 61.4309ZM44.9671 61.4309L44.522 61.129L44.9897 64.2111L44.9671 61.4309ZM50.2519 61.4309L49.7689 61.6782L50.2292 64.2111L50.2519 61.4309ZM50.2519 61.4309L49.7689 61.6782L50.2292 64.2111L50.2519 61.4309ZM45.45 61.6782L44.9671 61.4309L45.4685 64.458L45.45 61.6782ZM45.45 61.6782L44.9671 61.4309L45.4685 64.458L45.45 61.6782ZM49.7689 61.6782L49.2557 61.8708L49.7504 64.458L49.7689 61.6782ZM49.7689 61.6782L49.2557 61.8708L49.7504 64.458L49.7689 61.6782ZM45.9633 61.8708L45.45 61.6782L45.9774 64.6503L45.9633 61.8708ZM45.9633 61.8708L45.45 61.6782L45.9774 64.6503L45.9633 61.8708ZM49.2557 61.8708L48.7196 62.0084L49.2416 64.6503L49.2557 61.8708ZM49.2557 61.8708L48.7196 62.0084L49.2416 64.6503L49.2557 61.8708ZM46.4994 62.0084L45.9633 61.8708L46.5089 64.7878L46.4994 62.0084ZM46.4994 62.0084L45.9633 61.8708L46.5089 64.7878L46.4994 62.0084ZM48.7196 62.0084L48.1684 62.0911L48.7101 64.7878L48.7196 62.0084ZM48.7196 62.0084L48.1684 62.0911L48.7101 64.7878L48.7196 62.0084ZM47.0506 62.0911L46.4994 62.0084L47.0554 64.8703L47.0506 62.0911ZM47.0506 62.0911L46.4994 62.0084L47.0554 64.8703L47.0506 62.0911ZM48.1684 62.0911L47.6095 62.1186L48.1636 64.8703L48.1684 62.0911ZM48.1684 62.0911L47.6095 62.1186L48.1636 64.8703L48.1684 62.0911ZM47.6095 62.1186L47.0506 62.0911L47.6095 64.8978V62.1186ZM47.6095 62.1186L47.0506 62.0911L47.6095 64.8978V62.1186Z" fill="#1E1E1E"/>
<path d="M49.7689 61.6782L50.2519 61.4309L50.697 61.129L49.7689 61.6782ZM44.522 61.129L44.9671 61.4309L45.45 61.6782L44.522 61.129ZM49.7689 61.6782L50.2519 61.4309L50.697 61.129L49.7689 61.6782ZM44.522 61.129L44.9671 61.4309L45.45 61.6782L44.522 61.129ZM45.45 61.6782L47.6095 62.1187L49.7689 61.6782H45.45ZM45.45 61.6782L47.6095 62.1187L49.7689 61.6782H45.45ZM48.7196 62.0084L49.2557 61.8708L49.7689 61.6782L48.7196 62.0084ZM45.45 61.6782L45.9633 61.8708L46.4994 62.0084L45.45 61.6782ZM48.7196 62.0084L49.2557 61.8708L49.7689 61.6782L48.7196 62.0084ZM45.45 61.6782L45.9633 61.8708L46.4994 62.0084L45.45 61.6782ZM47.6095 62.1187L48.7196 62.0084L49.7689 61.6782L47.6095 62.1187ZM45.45 61.6782L46.4994 62.0084L47.6095 62.1187L45.45 61.6782ZM47.6095 62.1187L48.7196 62.0084L49.7689 61.6782L47.6095 62.1187ZM45.45 61.6782L46.4994 62.0084L47.6095 62.1187L45.45 61.6782ZM46.4994 62.0084L47.0506 62.0911L47.6095 62.1187L46.4994 62.0084ZM46.4994 62.0084L47.0506 62.0911L47.6095 62.1187L46.4994 62.0084ZM47.6095 62.1187L48.1684 62.0911L48.7196 62.0084L47.6095 62.1187ZM47.6095 62.1187L48.1684 62.0911L48.7196 62.0084L47.6095 62.1187Z" fill="white"/>
<path d="M49.7689 61.6782L50.2519 61.4309L50.697 61.129L49.7689 61.6782ZM44.522 61.129L44.9671 61.4309L45.45 61.6782L44.522 61.129ZM49.7689 61.6782L50.2519 61.4309L50.697 61.129L49.7689 61.6782ZM44.522 61.129L44.9671 61.4309L45.45 61.6782L44.522 61.129ZM45.45 61.6782L47.6095 62.1187L49.7689 61.6782H45.45ZM45.45 61.6782L47.6095 62.1187L49.7689 61.6782H45.45ZM48.7196 62.0084L49.2557 61.8708L49.7689 61.6782L48.7196 62.0084ZM45.45 61.6782L45.9633 61.8708L46.4994 62.0084L45.45 61.6782ZM48.7196 62.0084L49.2557 61.8708L49.7689 61.6782L48.7196 62.0084ZM45.45 61.6782L45.9633 61.8708L46.4994 62.0084L45.45 61.6782ZM47.6095 62.1187L48.7196 62.0084L49.7689 61.6782L47.6095 62.1187ZM45.45 61.6782L46.4994 62.0084L47.6095 62.1187L45.45 61.6782ZM47.6095 62.1187L48.7196 62.0084L49.7689 61.6782L47.6095 62.1187ZM45.45 61.6782L46.4994 62.0084L47.6095 62.1187L45.45 61.6782ZM46.4994 62.0084L47.0506 62.0911L47.6095 62.1187L46.4994 62.0084ZM46.4994 62.0084L47.0506 62.0911L47.6095 62.1187L46.4994 62.0084ZM47.6095 62.1187L48.1684 62.0911L48.7196 62.0084L47.6095 62.1187ZM47.6095 62.1187L48.1684 62.0911L48.7196 62.0084L47.6095 62.1187Z" fill="white"/>
</g>
<path d="M28.68 31.968L25.608 28.48L28.68 24.976H32.616L29.544 28.48L32.616 31.968H28.68ZM37.4226 26.272C37.668 25.856 38.0146 25.5253 38.4626 25.28C38.9106 25.0347 39.4386 24.912 40.0466 24.912C40.7613 24.912 41.4066 25.0987 41.9826 25.472C42.5693 25.8453 43.028 26.3787 43.3586 27.072C43.7 27.7653 43.8706 28.576 43.8706 29.504C43.8706 30.432 43.7 31.248 43.3586 31.952C43.028 32.6453 42.5693 33.1787 41.9826 33.552C41.4066 33.9253 40.7613 34.112 40.0466 34.112C39.4386 34.112 38.9106 33.9893 38.4626 33.744C38.0253 33.4987 37.6786 33.168 37.4226 32.752V38.288H34.2866V25.024H37.4226V26.272ZM40.6866 29.504C40.6866 28.9173 40.5266 28.464 40.2066 28.144C39.8973 27.8133 39.5133 27.648 39.0546 27.648C38.596 27.648 38.2066 27.8133 37.8866 28.144C37.5773 28.4747 37.4226 28.928 37.4226 29.504C37.4226 30.0907 37.5773 30.5493 37.8866 30.88C38.2066 31.2107 38.596 31.376 39.0546 31.376C39.5133 31.376 39.8973 31.2107 40.2066 30.88C40.5266 30.5387 40.6866 30.08 40.6866 29.504ZM48.9856 34.112C48.175 34.112 47.4496 33.9787 46.8096 33.712C46.1803 33.4347 45.679 33.0613 45.3056 32.592C44.943 32.112 44.7403 31.5733 44.6976 30.976H47.7376C47.7803 31.264 47.9136 31.488 48.1376 31.648C48.3616 31.808 48.639 31.888 48.9696 31.888C49.2256 31.888 49.4283 31.8347 49.5776 31.728C49.727 31.6213 49.8016 31.4827 49.8016 31.312C49.8016 31.088 49.679 30.9227 49.4336 30.816C49.1883 30.7093 48.783 30.592 48.2176 30.464C47.5776 30.336 47.0443 30.192 46.6176 30.032C46.191 29.872 45.8176 29.6107 45.4976 29.248C45.1883 28.8853 45.0336 28.3947 45.0336 27.776C45.0336 27.2427 45.1776 26.7627 45.4656 26.336C45.7536 25.8987 46.175 25.552 46.7296 25.296C47.295 25.04 47.9723 24.912 48.7616 24.912C49.935 24.912 50.8576 25.2 51.5296 25.776C52.2016 26.352 52.591 27.1093 52.6976 28.048H49.8656C49.8123 27.76 49.6843 27.5413 49.4816 27.392C49.2896 27.232 49.0283 27.152 48.6976 27.152C48.4416 27.152 48.2443 27.2 48.1056 27.296C47.9776 27.392 47.9136 27.5253 47.9136 27.696C47.9136 27.9093 48.0363 28.0747 48.2816 28.192C48.527 28.2987 48.9216 28.4107 49.4656 28.528C50.1163 28.6667 50.655 28.8213 51.0816 28.992C51.519 29.1627 51.8976 29.44 52.2176 29.824C52.5483 30.1973 52.7136 30.7093 52.7136 31.36C52.7136 31.8827 52.559 32.352 52.2496 32.768C51.951 33.184 51.519 33.5147 50.9536 33.76C50.399 33.9947 49.743 34.112 48.9856 34.112ZM53.7434 29.504C53.7434 28.576 53.9087 27.7653 54.2394 27.072C54.5807 26.3787 55.0447 25.8453 55.6314 25.472C56.218 25.0987 56.8687 24.912 57.5834 24.912C58.1594 24.912 58.6714 25.0347 59.1194 25.28C59.578 25.5147 59.9354 25.84 60.1914 26.256V22.16H63.3434V34H60.1914V32.752C59.946 33.168 59.5994 33.4987 59.1514 33.744C58.7034 33.9893 58.1754 34.112 57.5674 34.112C56.8527 34.112 56.202 33.9253 55.6154 33.552C55.0394 33.1787 54.5807 32.6453 54.2394 31.952C53.9087 31.248 53.7434 30.432 53.7434 29.504ZM60.2074 29.504C60.2074 28.928 60.0474 28.4747 59.7274 28.144C59.418 27.8133 59.034 27.648 58.5754 27.648C58.106 27.648 57.7167 27.8133 57.4074 28.144C57.098 28.464 56.9434 28.9173 56.9434 29.504C56.9434 30.08 57.098 30.5387 57.4074 30.88C57.7167 31.2107 58.106 31.376 58.5754 31.376C59.034 31.376 59.418 31.2107 59.7274 30.88C60.0474 30.5493 60.2074 30.0907 60.2074 29.504ZM64.9064 24.976H68.8264L71.8984 28.48L68.8264 31.968H64.9064L67.9784 28.48L64.9064 24.976Z" fill="#0076E3"/>
<defs>
<filter id="filter0_dd_201_15050" x="0" y="0" width="95.219" height="72.8978" filterUnits="userSpaceOnUse" color-interpolation-filters="sRGB">
<feFlood flood-opacity="0" result="BackgroundImageFix"/>
<feColorMatrix in="SourceAlpha" type="matrix" values="0 0 0 0 0 0 0 0 0 0 0 0 0 0 0 0 0 0 127 0" result="hardAlpha"/>
<feOffset dy="4"/>
<feGaussianBlur stdDeviation="2"/>
<feComposite in2="hardAlpha" operator="out"/>
<feColorMatrix type="matrix" values="0 0 0 0 0 0 0 0 0 0 0 0 0 0 0 0 0 0 0.25 0"/>
<feBlend mode="normal" in2="BackgroundImageFix" result="effect1_dropShadow_201_15050"/>
<feColorMatrix in="SourceAlpha" type="matrix" values="0 0 0 0 0 0 0 0 0 0 0 0 0 0 0 0 0 0 127 0" result="hardAlpha"/>
<feOffset dy="4"/>
<feGaussianBlur stdDeviation="2"/>
<feComposite in2="hardAlpha" operator="out"/>
<feColorMatrix type="matrix" values="0 0 0 0 0 0 0 0 0 0 0 0 0 0 0 0 0 0 0.25 0"/>
<feBlend mode="normal" in2="effect1_dropShadow_201_15050" result="effect2_dropShadow_201_15050"/>
<feBlend mode="normal" in="SourceGraphic" in2="effect2_dropShadow_201_15050" result="shape"/>
</filter>
</defs>
</svg>
