<svg width="56" height="56" viewBox="0 0 56 56" fill="none" xmlns="http://www.w3.org/2000/svg">
<rect width="56" height="56" fill="#FEDC5A"/>
<path d="M14.9062 38V20.5455H19.6449V27.3636H25.9176V20.5455H30.6562V38H25.9176V31.1818H19.6449V38H14.9062ZM32.9062 38V20.5455H40.4403C41.7358 20.5455 42.8693 20.8011 43.8409 21.3125C44.8125 21.8239 45.5682 22.5426 46.108 23.4688C46.6477 24.3949 46.9176 25.4773 46.9176 26.7159C46.9176 27.9659 46.6392 29.0483 46.0824 29.9631C45.5313 30.8778 44.7557 31.5824 43.7557 32.0767C42.7614 32.571 41.5994 32.8182 40.2699 32.8182H35.7699V29.1364H39.3153C39.8722 29.1364 40.3466 29.0398 40.7386 28.8466C41.1364 28.6477 41.4403 28.3665 41.6506 28.0028C41.8665 27.6392 41.9744 27.2102 41.9744 26.7159C41.9744 26.2159 41.8665 25.7898 41.6506 25.4375C41.4403 25.0795 41.1364 24.8068 40.7386 24.6193C40.3466 24.4261 39.8722 24.3295 39.3153 24.3295H37.6449V38H32.9062Z" fill="#5454D4"/>
</svg>
